<svg data-v-423bf9ae="" xmlns="http://www.w3.org/2000/svg" viewBox="0 0 420.00002605370975 163" class="iconAbove"><!----><!----><!----><g data-v-423bf9ae="" id="fd8bf7d5-a905-4239-8fa6-8c62528869ee" fill="#ffffff" transform="matrix(3.4149117469787598,0,0,3.4149117469787598,-2.868518352508545,94.59931945800781)"><path d="M4.52 15.64L4.52 15.64L4.52 15.64Q2.97 15.64 1.90 14.38L1.90 14.38L1.90 14.38Q0.84 13.12 0.84 10.71L0.84 10.71L0.84 10.71Q0.84 8.93 1.41 7.47L1.41 7.47L1.41 7.47Q1.99 6.01 3.21 5.08L3.21 5.08L3.21 5.08Q4.44 4.14 5.98 4.14L5.98 4.14L5.98 4.14Q7.52 4.14 8.22 4.89L8.22 4.89L8.22 4.89Q8.92 5.64 8.92 6.61L8.92 6.61L8.92 6.61Q8.92 7.57 8.43 8.16L8.43 8.16L8.43 8.16Q7.94 8.74 7.15 8.74L7.15 8.74L7.15 8.74Q6.90 8.74 6.54 8.62L6.54 8.62L6.54 8.62Q6.86 8.29 7.11 7.68L7.11 7.68L7.11 7.68Q7.35 7.07 7.35 6.45L7.35 6.45L7.35 6.45Q7.35 5.84 7.02 5.40L7.02 5.40L7.02 5.40Q6.69 4.96 5.98 4.96L5.98 4.96L5.98 4.96Q4.90 4.96 4.05 5.85L4.05 5.85L4.05 5.85Q3.21 6.73 2.78 8.03L2.78 8.03L2.78 8.03Q2.35 9.32 2.35 10.70L2.35 10.70L2.35 10.70Q2.35 12.63 3.09 13.59L3.09 13.59L3.09 13.59Q3.84 14.55 5.01 14.55L5.01 14.55L5.01 14.55Q5.80 14.55 6.62 14.07L6.62 14.07L6.62 14.07Q7.45 13.59 7.98 12.70L7.98 12.70L7.98 12.70Q8.19 12.70 8.37 12.82L8.37 12.82L8.37 12.82Q8.55 12.95 8.55 13.08L8.55 13.08L8.55 13.08Q7.77 14.56 6.58 15.13L6.58 15.13L6.58 15.13Q5.54 15.64 4.52 15.64ZM10.77 14.41L10.77 14.41L10.77 14.41Q10.75 14.18 10.75 13.69L10.75 13.69L10.75 13.69Q10.75 13.19 11.22 9.44L11.22 9.44L11.22 9.44Q11.69 5.68 11.69 4.28L11.69 4.28L11.69 4.28Q11.69 2.88 11.52 2.46L11.52 2.46L11.52 2.46Q12.31 2.76 12.63 3.33L12.63 3.33L12.63 3.33Q12.95 3.91 12.95 4.72L12.95 4.72L12.95 4.72Q12.95 5.53 12.54 8.92L12.54 8.92L12.54 8.92Q12.14 12.31 12.14 14.38L12.14 14.38L12.14 14.38Q12.14 14.83 12.19 15.64L12.19 15.64L12.19 15.64Q11.42 15.58 11.10 15.27L11.10 15.27L11.10 15.27Q10.84 15.02 10.77 14.41ZM16.90 9.95L16.90 9.95L16.90 9.95Q16.49 10.65 16.27 11.39L16.27 11.39L16.27 11.39Q16.06 12.12 16.06 12.80L16.06 12.80L16.06 12.80Q16.06 13.47 16.36 13.94L16.36 13.94L16.36 13.94Q16.66 14.41 17.22 14.41L17.22 14.41L17.22 14.41Q18.00 14.41 18.69 13.55L18.69 13.55L18.69 13.55Q19.38 12.68 19.75 11.46L19.75 11.46L19.75 11.46Q20.12 10.23 20.12 9.19L20.12 9.19L20.12 9.19Q20.12 8.15 20.03 7.48L20.03 7.48L20.03 7.48Q20.37 7.45 20.45 7.45L20.45 7.45L20.45 7.45Q21.64 7.45 21.64 8.67L21.64 8.67L21.64 8.67Q21.64 8.93 21.31 10.83L21.31 10.83L21.31 10.83Q20.97 12.73 20.97 13.87L20.97 13.87L20.97 13.87Q20.97 15.01 21.41 15.89L21.41 15.89L21.41 15.89Q20.52 15.71 20.13 15.11L20.13 15.11L20.13 15.11Q19.73 14.52 19.73 13.40L19.73 13.40L19.73 13.40Q19.73 13.20 19.78 12.64L19.78 12.64L19.78 12.64Q19.40 13.97 18.45 14.78L18.45 14.78L18.45 14.78Q17.50 15.60 16.58 15.60L16.58 15.60L16.58 15.60Q15.67 15.60 15.11 14.90L15.11 14.90L15.11 14.90Q14.55 14.21 14.55 12.99L14.55 12.99L14.55 12.99Q14.55 11.76 15.00 10.59L15.00 10.59L15.00 10.59Q15.46 9.42 16.37 8.57L16.37 8.57L16.37 8.57Q17.29 7.71 18.42 7.71L18.42 7.71L18.42 7.71Q18.91 7.71 19.50 7.91L19.50 7.91L19.50 7.91Q18.68 8.12 17.99 8.68L17.99 8.68L17.99 8.68Q17.30 9.24 16.90 9.95ZM26.66 8.04L26.66 8.04L26.66 8.04Q26.19 8.04 25.82 8.33L25.82 8.33L25.82 8.33Q25.45 8.62 25.45 9.14L25.45 9.14L25.45 9.14Q25.45 9.65 25.80 10.09L25.80 10.09L25.80 10.09Q26.14 10.54 26.63 10.89L26.63 10.89L26.63 10.89Q27.12 11.24 27.62 11.61L27.62 11.61L27.62 11.61Q28.80 12.47 28.80 13.47L28.80 13.47L28.80 13.47Q28.80 14.46 28.00 15.09L28.00 15.09L28.00 15.09Q27.20 15.71 25.96 15.71L25.96 15.71L25.96 15.71Q24.72 15.71 24.05 15.22L24.05 15.22L24.05 15.22Q23.37 14.73 23.37 14.06L23.37 14.06L23.37 14.06Q23.37 13.40 23.70 13.02L23.70 13.02L23.70 13.02Q24.04 12.64 24.51 12.64L24.51 12.64L24.51 12.64Q24.77 12.64 24.99 12.75L24.99 12.75L24.99 12.75Q24.68 13.15 24.68 13.68L24.68 13.68L24.68 13.68Q24.68 14.21 25.01 14.57L25.01 14.57L25.01 14.57Q25.34 14.94 25.92 14.94L25.92 14.94L25.92 14.94Q26.50 14.94 26.91 14.64L26.91 14.64L26.91 14.64Q27.31 14.34 27.31 13.87L27.31 13.87L27.31 13.87Q27.31 13.41 27.08 13.06L27.08 13.06L27.08 13.06Q26.84 12.71 26.48 12.46L26.48 12.46L26.48 12.46Q26.12 12.21 25.70 11.90L25.70 11.90L25.70 11.90Q25.28 11.59 24.93 11.29L24.93 11.29L24.93 11.29Q24.57 10.99 24.33 10.54L24.33 10.54L24.33 10.54Q24.09 10.08 24.09 9.53L24.09 9.53L24.09 9.53Q24.09 8.54 24.85 7.90L24.85 7.90L24.85 7.90Q25.61 7.27 26.75 7.27L26.75 7.27L26.75 7.27Q27.90 7.27 28.43 7.74L28.43 7.74L28.43 7.74Q28.97 8.22 28.97 8.81L28.97 8.81L28.97 8.81Q28.97 9.41 28.67 9.79L28.67 9.79L28.67 9.79Q28.38 10.18 27.92 10.18L27.92 10.18L27.92 10.18Q27.69 10.18 27.40 10.05L27.40 10.05L27.40 10.05Q27.76 9.60 27.76 9.09L27.76 9.09L27.76 9.09Q27.76 8.57 27.45 8.30L27.45 8.30L27.45 8.30Q27.13 8.04 26.66 8.04ZM33.69 8.04L33.69 8.04L33.69 8.04Q33.22 8.04 32.85 8.33L32.85 8.33L32.85 8.33Q32.48 8.62 32.48 9.14L32.48 9.14L32.48 9.14Q32.48 9.65 32.82 10.09L32.82 10.09L32.82 10.09Q33.17 10.54 33.66 10.89L33.66 10.89L33.66 10.89Q34.15 11.24 34.65 11.61L34.65 11.61L34.65 11.61Q35.83 12.47 35.83 13.47L35.83 13.47L35.83 13.47Q35.83 14.46 35.03 15.09L35.03 15.09L35.03 15.09Q34.23 15.71 32.99 15.71L32.99 15.71L32.99 15.71Q31.75 15.71 31.07 15.22L31.07 15.22L31.07 15.22Q30.39 14.73 30.39 14.06L30.39 14.06L30.39 14.06Q30.39 13.40 30.73 13.02L30.73 13.02L30.73 13.02Q31.07 12.64 31.54 12.64L31.54 12.64L31.54 12.64Q31.79 12.64 32.02 12.75L32.02 12.75L32.02 12.75Q31.71 13.15 31.71 13.68L31.71 13.68L31.71 13.68Q31.71 14.21 32.04 14.57L32.04 14.57L32.04 14.57Q32.37 14.94 32.95 14.94L32.95 14.94L32.95 14.94Q33.53 14.94 33.94 14.64L33.94 14.64L33.94 14.64Q34.34 14.34 34.34 13.87L34.34 13.87L34.34 13.87Q34.34 13.41 34.10 13.06L34.10 13.06L34.10 13.06Q33.87 12.71 33.51 12.46L33.51 12.46L33.51 12.46Q33.15 12.21 32.73 11.90L32.73 11.90L32.73 11.90Q32.31 11.59 31.96 11.29L31.96 11.29L31.96 11.29Q31.60 10.99 31.36 10.54L31.36 10.54L31.36 10.54Q31.12 10.08 31.12 9.53L31.12 9.53L31.12 9.53Q31.12 8.54 31.88 7.90L31.88 7.90L31.88 7.90Q32.63 7.27 33.78 7.27L33.78 7.27L33.78 7.27Q34.93 7.27 35.46 7.74L35.46 7.74L35.46 7.74Q35.99 8.22 35.99 8.81L35.99 8.81L35.99 8.81Q35.99 9.41 35.70 9.79L35.70 9.79L35.70 9.79Q35.41 10.18 34.94 10.18L34.94 10.18L34.94 10.18Q34.72 10.18 34.43 10.05L34.43 10.05L34.43 10.05Q34.79 9.60 34.79 9.09L34.79 9.09L34.79 9.09Q34.79 8.57 34.48 8.30L34.48 8.30L34.48 8.30Q34.16 8.04 33.69 8.04ZM39.65 10.88L39.65 10.88Q40.15 9.06 40.86 8.20L40.86 8.20L40.86 8.20Q41.57 7.34 42.17 7.34L42.17 7.34L42.17 7.34Q42.78 7.34 43.09 7.79L43.09 7.79L43.09 7.79Q43.40 8.25 43.40 8.95L43.40 8.95L43.40 8.95Q43.40 9.65 43.04 10.16L43.04 10.16L43.04 10.16Q42.67 10.67 41.97 10.67L41.97 10.67L41.97 10.67Q41.75 10.67 41.62 10.64L41.62 10.64L41.62 10.64Q42.10 9.95 42.10 9.24L42.10 9.24L42.10 9.24Q42.10 8.74 41.69 8.74L41.69 8.74L41.69 8.74Q41.37 8.74 41.01 9.11L41.01 9.11L41.01 9.11Q40.64 9.49 40.31 10.16L40.31 10.16L40.31 10.16Q39.97 10.84 39.75 11.91L39.75 11.91L39.75 11.91Q39.52 12.99 39.52 14.24L39.52 14.24L39.52 14.24Q39.52 14.38 39.59 15.43L39.59 15.43L39.59 15.43Q39.23 15.46 39.17 15.46L39.17 15.46L39.17 15.46Q37.94 15.46 37.94 14.25L37.94 14.25L37.94 14.25Q37.94 13.97 38.23 12.10L38.23 12.10L38.23 12.10Q38.53 10.22 38.53 9.11L38.53 9.11L38.53 9.11Q38.53 7.99 38.29 7.06L38.29 7.06L38.29 7.06Q39.12 7.38 39.45 7.97L39.45 7.97L39.45 7.97Q39.77 8.57 39.77 9.36L39.77 9.36L39.77 9.36Q39.77 10.15 39.65 10.88L39.65 10.88ZM49.59 10.83L49.59 10.83L49.59 10.83Q49.59 9.46 49.24 8.87L49.24 8.87L49.24 8.87Q48.90 8.27 48.27 8.27L48.27 8.27L48.27 8.27Q47.63 8.27 46.98 8.90L46.98 8.90L46.98 8.90Q46.34 9.52 45.97 10.44L45.97 10.44L45.97 10.44Q45.60 11.35 45.60 12.34L45.60 12.34L45.60 12.34Q45.60 13.33 45.98 14.05L45.98 14.05L45.98 14.05Q46.35 14.77 47.12 14.77L47.12 14.77L47.12 14.77Q48.22 14.77 48.90 13.48L48.90 13.48L48.90 13.48Q49.59 12.19 49.59 10.83ZM45.53 10.29L45.53 10.29Q46.06 8.78 46.96 8.09L46.96 8.09L46.96 8.09Q47.87 7.39 48.80 7.39L48.80 7.39L48.80 7.39Q49.73 7.39 50.34 8.21L50.34 8.21L50.34 8.21Q50.96 9.03 50.96 10.43L50.96 10.43L50.96 10.43Q50.96 11.97 50.37 13.29L50.37 13.29L50.37 13.29Q49.71 14.74 48.47 15.32L48.47 15.32L48.47 15.32Q47.80 15.64 46.98 15.64L46.98 15.64L46.98 15.64Q45.85 15.64 45.00 14.69L45.00 14.69L45.00 14.69Q44.14 13.75 44.14 11.99L44.14 11.99L44.14 11.99Q44.14 10.23 44.90 8.95L44.90 8.95L44.90 8.95Q45.65 7.66 46.96 7.15L46.96 7.15L46.96 7.15Q47.24 7.15 47.24 7.43L47.24 7.43L47.24 7.43Q45.85 8.34 45.53 10.29L45.53 10.29ZM58.23 10.83L58.23 10.83L58.23 10.83Q58.23 9.46 57.88 8.87L57.88 8.87L57.88 8.87Q57.54 8.27 56.90 8.27L56.90 8.27L56.90 8.27Q56.27 8.27 55.62 8.90L55.62 8.90L55.62 8.90Q54.98 9.52 54.61 10.44L54.61 10.44L54.61 10.44Q54.24 11.35 54.24 12.34L54.24 12.34L54.24 12.34Q54.24 13.33 54.61 14.05L54.61 14.05L54.61 14.05Q54.99 14.77 55.76 14.77L55.76 14.77L55.76 14.77Q56.85 14.77 57.54 13.48L57.54 13.48L57.54 13.48Q58.23 12.19 58.23 10.83ZM54.17 10.29L54.17 10.29Q54.70 8.78 55.60 8.09L55.60 8.09L55.60 8.09Q56.50 7.39 57.43 7.39L57.43 7.39L57.43 7.39Q58.37 7.39 58.98 8.21L58.98 8.21L58.98 8.21Q59.60 9.03 59.60 10.43L59.60 10.43L59.60 10.43Q59.60 11.97 59.01 13.29L59.01 13.29L59.01 13.29Q58.35 14.74 57.11 15.32L57.11 15.32L57.11 15.32Q56.43 15.64 55.62 15.64L55.62 15.64L55.62 15.64Q54.49 15.64 53.63 14.69L53.63 14.69L53.63 14.69Q52.78 13.75 52.78 11.99L52.78 11.99L52.78 11.99Q52.78 10.23 53.54 8.95L53.54 8.95L53.54 8.95Q54.29 7.66 55.59 7.15L55.59 7.15L55.59 7.15Q55.87 7.15 55.87 7.43L55.87 7.43L55.87 7.43Q54.49 8.34 54.17 10.29L54.17 10.29ZM68.20 10.12L68.20 10.12L68.20 10.12Q67.83 10.78 67.58 11.80L67.58 11.80L67.58 11.80Q67.33 12.82 67.33 13.73L67.33 13.73L67.33 13.73Q67.33 14.64 67.41 15.43L67.41 15.43L67.41 15.43Q67.05 15.46 66.98 15.46L66.98 15.46L66.98 15.46Q65.76 15.46 65.76 14.27L65.76 14.27L65.76 14.27Q65.76 13.83 66.06 12.11L66.06 12.11L66.06 12.11Q66.36 10.39 66.36 9.53L66.36 9.53L66.36 9.53Q66.36 8.67 65.72 8.67L65.72 8.67L65.72 8.67Q64.92 8.67 64.09 10.21L64.09 10.21L64.09 10.21Q63.27 11.75 63.27 13.94L63.27 13.94L63.27 13.94Q63.27 14.64 63.35 15.43L63.35 15.43L63.35 15.43Q62.99 15.46 62.92 15.46L62.92 15.46L62.92 15.46Q61.70 15.46 61.70 14.27L61.70 14.27L61.70 14.27Q61.70 14.11 61.98 12.18L61.98 12.18L61.98 12.18Q62.27 10.25 62.27 9.12L62.27 9.12L62.27 9.12Q62.27 7.99 62.03 7.06L62.03 7.06L62.03 7.06Q62.87 7.38 63.20 7.98L63.20 7.98L63.20 7.98Q63.53 8.58 63.53 9.46L63.53 9.46L63.53 9.46Q63.53 9.91 63.43 10.60L63.43 10.60L63.43 10.60Q63.91 9.20 64.75 8.27L64.75 8.27L64.75 8.27Q65.59 7.35 66.29 7.35L66.29 7.35L66.29 7.35Q67.86 7.35 67.86 9.77L67.86 9.77L67.86 9.77Q68.38 8.65 69.05 8.00L69.05 8.00L69.05 8.00Q69.73 7.35 70.32 7.35L70.32 7.35L70.32 7.35Q71.18 7.35 71.53 7.86L71.53 7.86L71.53 7.86Q71.88 8.37 71.88 9.25L71.88 9.25L71.88 9.25Q71.88 10.12 71.60 11.70L71.60 11.70L71.60 11.70Q71.33 13.29 71.33 14.01L71.33 14.01L71.33 14.01Q71.33 14.73 71.51 15.06L71.51 15.06L71.51 15.06Q71.69 15.39 72.13 15.62L72.13 15.62L72.13 15.62Q71.95 15.64 71.61 15.64L71.61 15.64L71.61 15.64Q70.71 15.64 70.29 15.27L70.29 15.27L70.29 15.27Q69.86 14.90 69.86 14L69.86 14L69.86 14Q69.86 13.48 70.14 11.91L70.14 11.91L70.14 11.91Q70.42 10.33 70.42 9.59L70.42 9.59L70.42 9.59Q70.42 8.67 69.78 8.67L69.78 8.67L69.78 8.67Q69.41 8.67 68.99 9.06L68.99 9.06L68.99 9.06Q68.57 9.45 68.20 10.12ZM84.38 10.47L84.38 10.47L82.35 10.44L82.35 10.44Q81.70 10.44 81.07 10.49L81.07 10.49L81.07 10.49Q80.72 12.99 80.72 14.20L80.72 14.20L80.72 14.20Q80.72 15.40 80.92 15.86L80.92 15.86L80.92 15.86Q80.05 15.55 79.70 15.03L79.70 15.03L79.70 15.03Q79.34 14.50 79.34 13.80L79.34 13.80L79.34 13.80Q79.34 13.09 79.48 11.98L79.48 11.98L79.48 11.98Q79.63 10.86 79.66 10.70L79.66 10.70L79.66 10.70Q79.18 10.81 78.95 10.89L78.95 10.89L78.95 10.89Q78.92 10.64 78.92 10.36L78.92 10.36L78.92 10.36Q78.92 9.56 79.84 9.42L79.84 9.42L79.84 9.42Q80.15 7.04 80.15 5.35L80.15 5.35L80.15 5.35Q80.15 4.93 80.09 4.20L80.09 4.20L80.09 4.20Q81.16 4.26 81.42 4.70L81.42 4.70L81.42 4.70Q81.56 4.96 81.61 5.19L81.61 5.19L81.61 5.19Q81.65 5.42 81.65 5.98L81.65 5.98L81.65 5.98Q81.65 6.54 81.45 7.90L81.45 7.90L81.45 7.90Q81.24 9.25 81.23 9.38L81.23 9.38L81.23 9.38Q83.72 9.38 85.71 9.34L85.71 9.34L85.71 9.34Q86.02 7 86.02 5.35L86.02 5.35L86.02 5.35Q86.02 4.93 85.96 4.20L85.96 4.20L85.96 4.20Q87.02 4.26 87.29 4.70L87.29 4.70L87.29 4.70Q87.43 4.96 87.47 5.19L87.47 5.19L87.47 5.19Q87.51 5.42 87.51 5.98L87.51 5.98L87.51 5.98Q87.51 6.54 87.05 9.70L87.05 9.70L87.05 9.70Q86.59 12.87 86.59 14.13L86.59 14.13L86.59 14.13Q86.59 15.40 86.79 15.86L86.79 15.86L86.79 15.86Q85.92 15.55 85.56 15.03L85.56 15.03L85.56 15.03Q85.20 14.50 85.20 13.80L85.20 13.80L85.20 13.80Q85.20 13.09 85.50 10.92L85.50 10.92L85.69 9.49L85.69 9.49Q85.48 10.47 84.38 10.47ZM93.39 8.08L93.39 8.08L93.39 8.08Q92.55 8.08 91.97 9.04L91.97 9.04L91.97 9.04Q91.39 10.01 91.20 11.31L91.20 11.31L91.59 11.31L91.59 11.31Q92.33 11.31 92.88 11.10L92.88 11.10L92.88 11.10Q93.42 10.89 93.72 10.56L93.72 10.56L93.72 10.56Q94.28 9.91 94.28 9.10L94.28 9.10L94.28 9.10Q94.28 8.64 94.06 8.36L94.06 8.36L94.06 8.36Q93.84 8.08 93.39 8.08ZM95.37 13.75L95.37 13.75Q94.72 14.80 93.95 15.22L93.95 15.22L93.95 15.22Q93.18 15.64 92.17 15.64L92.17 15.64L92.17 15.64Q91.15 15.64 90.40 14.74L90.40 14.74L90.40 14.74Q89.64 13.85 89.64 12.22L89.64 12.22L89.64 12.22Q89.64 10.37 90.64 8.92L90.64 8.92L90.64 8.92Q91.13 8.22 91.92 7.78L91.92 7.78L91.92 7.78Q92.71 7.35 93.66 7.35L93.66 7.35L93.66 7.35Q95.76 7.35 95.76 9.38L95.76 9.38L95.76 9.38Q95.76 10.60 94.81 11.29L94.81 11.29L94.81 11.29Q93.87 11.98 92.62 11.98L92.62 11.98L92.62 11.98Q91.80 11.98 91.14 11.83L91.14 11.83L91.14 11.83Q91.13 11.97 91.13 12.26L91.13 12.26L91.13 12.26Q91.13 14.74 92.60 14.74L92.60 14.74L92.60 14.74Q93.98 14.74 94.85 13.37L94.85 13.37L94.85 13.37Q95.37 13.44 95.37 13.75L95.37 13.75ZM97.47 14.41L97.47 14.41L97.47 14.41Q97.45 14.18 97.45 13.69L97.45 13.69L97.45 13.69Q97.45 13.19 97.92 9.44L97.92 9.44L97.92 9.44Q98.39 5.68 98.39 4.28L98.39 4.28L98.39 4.28Q98.39 2.88 98.22 2.46L98.22 2.46L98.22 2.46Q99.01 2.76 99.33 3.33L99.33 3.33L99.33 3.33Q99.65 3.91 99.65 4.72L99.65 4.72L99.65 4.72Q99.65 5.53 99.25 8.92L99.25 8.92L99.25 8.92Q98.84 12.31 98.84 14.38L98.84 14.38L98.84 14.38Q98.84 14.83 98.90 15.64L98.90 15.64L98.90 15.64Q98.13 15.58 97.80 15.27L97.80 15.27L97.80 15.27Q97.54 15.02 97.47 14.41ZM103.52 10.37L103.52 10.37Q104.09 9.07 104.97 8.38L104.97 8.38L104.97 8.38Q105.84 7.69 106.70 7.69L106.70 7.69L106.70 7.69Q107.56 7.69 108.12 8.38L108.12 8.38L108.12 8.38Q108.68 9.07 108.68 10.39L108.68 10.39L108.68 10.39Q108.68 12.47 107.58 13.95L107.58 13.95L107.58 13.95Q106.48 15.43 104.94 15.43L104.94 15.43L104.94 15.43Q104.40 15.43 103.82 15.20L103.82 15.20L103.82 15.20Q104.87 14.99 105.67 14.13L105.67 14.13L105.67 14.13Q106.46 13.27 106.81 12.29L106.81 12.29L106.81 12.29Q107.17 11.30 107.17 10.51L107.17 10.51L107.17 10.51Q107.17 9.72 106.89 9.30L106.89 9.30L106.89 9.30Q106.61 8.88 106.09 8.88L106.09 8.88L106.09 8.88Q105.13 8.88 104.37 9.95L104.37 9.95L104.37 9.95Q103.61 11.02 103.21 12.85L103.21 12.85L103.21 12.85Q102.80 14.69 102.80 16.64L102.80 16.64L102.80 16.64Q102.80 18.59 103.08 20.03L103.08 20.03L103.08 20.03Q102.23 19.99 101.74 19.66L101.74 19.66L101.74 19.66Q101.25 19.32 101.25 18.41L101.25 18.41L101.25 18.41Q101.25 18.07 101.67 14.86L101.67 14.86L101.67 14.86Q102.10 11.65 102.10 9.91L102.10 9.91L102.10 9.91Q102.10 8.18 101.89 6.99L101.89 6.99L101.89 6.99Q102.82 7.25 103.17 8.07L103.17 8.07L103.17 8.07Q103.52 8.89 103.52 10.37L103.52 10.37ZM114.25 8.08L114.25 8.08L114.25 8.08Q113.41 8.08 112.83 9.04L112.83 9.04L112.83 9.04Q112.25 10.01 112.06 11.31L112.06 11.31L112.45 11.31L112.45 11.31Q113.19 11.31 113.74 11.10L113.74 11.10L113.74 11.10Q114.28 10.89 114.58 10.56L114.58 10.56L114.58 10.56Q115.14 9.91 115.14 9.10L115.14 9.10L115.14 9.10Q115.14 8.64 114.92 8.36L114.92 8.36L114.92 8.36Q114.70 8.08 114.25 8.08ZM116.23 13.75L116.23 13.75Q115.58 14.80 114.81 15.22L114.81 15.22L114.81 15.22Q114.04 15.64 113.03 15.64L113.03 15.64L113.03 15.64Q112.01 15.64 111.26 14.74L111.26 14.74L111.26 14.74Q110.50 13.85 110.50 12.22L110.50 12.22L110.50 12.22Q110.50 10.37 111.50 8.92L111.50 8.92L111.50 8.92Q111.99 8.22 112.78 7.78L112.78 7.78L112.78 7.78Q113.57 7.35 114.52 7.35L114.52 7.35L114.52 7.35Q116.62 7.35 116.62 9.38L116.62 9.38L116.62 9.38Q116.62 10.60 115.67 11.29L115.67 11.29L115.67 11.29Q114.73 11.98 113.48 11.98L113.48 11.98L113.48 11.98Q112.66 11.98 112 11.83L112 11.83L112 11.83Q111.99 11.97 111.99 12.26L111.99 12.26L111.99 12.26Q111.99 14.74 113.46 14.74L113.46 14.74L113.46 14.74Q114.84 14.74 115.71 13.37L115.71 13.37L115.71 13.37Q116.23 13.44 116.23 13.75L116.23 13.75ZM120.08 10.88L120.08 10.88Q120.58 9.06 121.29 8.20L121.29 8.20L121.29 8.20Q122.00 7.34 122.60 7.34L122.60 7.34L122.60 7.34Q123.21 7.34 123.52 7.79L123.52 7.79L123.52 7.79Q123.83 8.25 123.83 8.95L123.83 8.95L123.83 8.95Q123.83 9.65 123.47 10.16L123.47 10.16L123.47 10.16Q123.10 10.67 122.40 10.67L122.40 10.67L122.40 10.67Q122.18 10.67 122.05 10.64L122.05 10.64L122.05 10.64Q122.53 9.95 122.53 9.24L122.53 9.24L122.53 9.24Q122.53 8.74 122.12 8.74L122.12 8.74L122.12 8.74Q121.80 8.74 121.44 9.11L121.44 9.11L121.44 9.11Q121.07 9.49 120.74 10.16L120.74 10.16L120.74 10.16Q120.40 10.84 120.18 11.91L120.18 11.91L120.18 11.91Q119.95 12.99 119.95 14.24L119.95 14.24L119.95 14.24Q119.95 14.38 120.02 15.43L120.02 15.43L120.02 15.43Q119.66 15.46 119.60 15.46L119.60 15.46L119.60 15.46Q118.37 15.46 118.37 14.25L118.37 14.25L118.37 14.25Q118.37 13.97 118.66 12.10L118.66 12.10L118.66 12.10Q118.96 10.22 118.96 9.11L118.96 9.11L118.96 9.11Q118.96 7.99 118.72 7.06L118.72 7.06L118.72 7.06Q119.55 7.38 119.87 7.97L119.87 7.97L119.87 7.97Q120.20 8.57 120.20 9.36L120.20 9.36L120.20 9.36Q120.20 10.15 120.08 10.88L120.08 10.88Z"></path></g><!----><g data-v-423bf9ae="" id="f1d56169-cc76-4e8d-ac6f-476031b75a18" transform="matrix(2.8125,0,0,2.8125,166,0)" stroke="none" fill="#14D9D9"><path d="M16 32c8.837 0 16-7.163 16-16S24.837 0 16 0 0 7.163 0 16s7.163 16 16 16zM14.817 6.421h2v8.886h8.887v2H14.817V6.421zm-5.959.437h2v14.283h14.283v2H8.858V6.858z"></path></g><!----></svg>